<?xml version="1.0" encoding="UTF-8" standalone="no"?>
<svg
   xmlns:dc="http://purl.org/dc/elements/1.1/"
   xmlns:cc="http://creativecommons.org/ns#"
   xmlns:rdf="http://www.w3.org/1999/02/22-rdf-syntax-ns#"
   xmlns:svg="http://www.w3.org/2000/svg"
   xmlns="http://www.w3.org/2000/svg"
   xmlns:xlink="http://www.w3.org/1999/xlink"
   xmlns:sodipodi="http://sodipodi.sourceforge.net/DTD/sodipodi-0.dtd"
   xmlns:inkscape="http://www.inkscape.org/namespaces/inkscape"
   viewBox="0 0 702.74309 133.70216"
   version="1.1"
   id="svg14"
   sodipodi:docname="aiidalab_logo.svg"
   inkscape:version="0.92.3 (2405546, 2018-03-11)"
   width="702.7431"
   height="133.70216">
  <metadata
     id="metadata18">
    <rdf:RDF>
      <cc:Work
         rdf:about="">
        <dc:format>image/svg+xml</dc:format>
        <dc:type
           rdf:resource="http://purl.org/dc/dcmitype/StillImage" />
        <dc:title>BLEU-fond-transparent-2</dc:title>
      </cc:Work>
    </rdf:RDF>
  </metadata>
  <sodipodi:namedview
     pagecolor="#ffffff"
     bordercolor="#666666"
     borderopacity="1"
     objecttolerance="10"
     gridtolerance="10"
     guidetolerance="10"
     inkscape:pageopacity="0"
     inkscape:pageshadow="2"
     inkscape:window-width="2560"
     inkscape:window-height="1392"
     id="namedview16"
     showgrid="false"
     inkscape:zoom="1.9781555"
     inkscape:cx="365.03948"
     inkscape:cy="85.860839"
     inkscape:window-x="2560"
     inkscape:window-y="0"
     inkscape:window-maximized="1"
     inkscape:current-layer="svg14"
     fit-margin-top="2"
     fit-margin-left="2"
     fit-margin-right="2"
     fit-margin-bottom="2" />
  <defs
     id="defs4">
    <style
       id="style2">.cls-1{fill:#fff;}.cls-2{fill:#f8e14b;}</style>
    <clipPath
       id="clipPath4224"
       clipPathUnits="userSpaceOnUse">
      <rect
         style="opacity:1;fill:#ffffff;fill-opacity:1;stroke:none;stroke-width:0.5;stroke-linecap:square;stroke-linejoin:miter;stroke-miterlimit:4;stroke-dasharray:none;stroke-dashoffset:0;stroke-opacity:1"
         id="rect4226"
         width="1548.5715"
         height="934.28571"
         x="-691.42859"
         y="-941.92352" />
    </clipPath>
    <clipPath
       id="clipPath4230"
       clipPathUnits="userSpaceOnUse">
      <rect
         y="-590.40851"
         x="-979.91364"
         height="1051.2557"
         width="1825.5415"
         id="rect4232"
         style="opacity:1;fill:#ffffff;fill-opacity:1;stroke:#000000;stroke-width:0.67285109;stroke-linecap:square;stroke-linejoin:miter;stroke-miterlimit:4;stroke-dasharray:none;stroke-dashoffset:0;stroke-opacity:1" />
    </clipPath>
    <clipPath
       id="clipPath4250"
       clipPathUnits="userSpaceOnUse">
      <rect
         y="-937.26233"
         x="-277.13654"
         height="393.91031"
         width="888.41724"
         id="rect4252"
         style="opacity:1;fill:#ffffff;fill-opacity:1;stroke:none;stroke-width:20;stroke-linecap:square;stroke-linejoin:miter;stroke-miterlimit:4;stroke-dasharray:none;stroke-dashoffset:0;stroke-opacity:1" />
    </clipPath>
    <clipPath
       id="clipPath4262"
       clipPathUnits="userSpaceOnUse">
      <rect
         y="-663.26282"
         x="-640"
         height="696.875"
         width="1490.625"
         id="rect4264"
         style="opacity:1;fill:#ffffff;fill-opacity:1;stroke:none;stroke-width:20;stroke-linecap:square;stroke-linejoin:miter;stroke-miterlimit:4;stroke-dasharray:none;stroke-dashoffset:0;stroke-opacity:1" />
    </clipPath>
    <clipPath
       id="clipPath4341"
       clipPathUnits="userSpaceOnUse">
      <rect
         y="-610.65808"
         x="-556.14594"
         height="576.05365"
         width="1389.6031"
         id="rect4343"
         style="opacity:1;fill:#ffffff;fill-opacity:1;stroke:none;stroke-width:20;stroke-linecap:square;stroke-linejoin:miter;stroke-miterlimit:4;stroke-dasharray:none;stroke-dashoffset:0;stroke-opacity:1" />
    </clipPath>
    <clipPath
       id="clipPath4224-7"
       clipPathUnits="userSpaceOnUse">
      <rect
         style="opacity:1;fill:#ffffff;fill-opacity:1;stroke:none;stroke-width:0.5;stroke-linecap:square;stroke-linejoin:miter;stroke-miterlimit:4;stroke-dasharray:none;stroke-dashoffset:0;stroke-opacity:1"
         id="rect4226-5"
         width="1548.5715"
         height="934.28571"
         x="-691.42859"
         y="-941.92352" />
    </clipPath>
    <clipPath
       id="clipPath4230-3"
       clipPathUnits="userSpaceOnUse">
      <rect
         y="-590.40851"
         x="-979.91364"
         height="1051.2557"
         width="1825.5415"
         id="rect4232-5"
         style="opacity:1;fill:#ffffff;fill-opacity:1;stroke:#000000;stroke-width:0.67285109;stroke-linecap:square;stroke-linejoin:miter;stroke-miterlimit:4;stroke-dasharray:none;stroke-dashoffset:0;stroke-opacity:1" />
    </clipPath>
    <clipPath
       id="clipPath4250-6"
       clipPathUnits="userSpaceOnUse">
      <rect
         y="-937.26233"
         x="-277.13654"
         height="393.91031"
         width="888.41724"
         id="rect4252-2"
         style="opacity:1;fill:#ffffff;fill-opacity:1;stroke:none;stroke-width:20;stroke-linecap:square;stroke-linejoin:miter;stroke-miterlimit:4;stroke-dasharray:none;stroke-dashoffset:0;stroke-opacity:1" />
    </clipPath>
    <clipPath
       id="clipPath4262-9"
       clipPathUnits="userSpaceOnUse">
      <rect
         y="-663.26282"
         x="-640"
         height="696.875"
         width="1490.625"
         id="rect4264-1"
         style="opacity:1;fill:#ffffff;fill-opacity:1;stroke:none;stroke-width:20;stroke-linecap:square;stroke-linejoin:miter;stroke-miterlimit:4;stroke-dasharray:none;stroke-dashoffset:0;stroke-opacity:1" />
    </clipPath>
    <clipPath
       id="clipPath4341-2"
       clipPathUnits="userSpaceOnUse">
      <rect
         y="-610.65808"
         x="-556.14594"
         height="576.05365"
         width="1389.6031"
         id="rect4343-7"
         style="opacity:1;fill:#ffffff;fill-opacity:1;stroke:none;stroke-width:20;stroke-linecap:square;stroke-linejoin:miter;stroke-miterlimit:4;stroke-dasharray:none;stroke-dashoffset:0;stroke-opacity:1" />
    </clipPath>
    <marker
       inkscape:stockid="Arrow1Send"
       orient="auto"
       refY="0"
       refX="0"
       id="marker6012"
       style="overflow:visible"
       inkscape:isstock="true">
      <path
         inkscape:connector-curvature="0"
         id="path6014"
         d="M 0,0 5,-5 -12.5,0 5,5 0,0 Z"
         style="fill:#002255;fill-opacity:1;fill-rule:evenodd;stroke:#002255;stroke-width:1pt;stroke-opacity:1"
         transform="matrix(-0.2,0,0,-0.2,-1.2,0)" />
    </marker>
    <marker
       inkscape:stockid="Arrow1Send"
       orient="auto"
       refY="0"
       refX="0"
       id="marker5390"
       style="overflow:visible"
       inkscape:isstock="true">
      <path
         inkscape:connector-curvature="0"
         id="path5392"
         d="M 0,0 5,-5 -12.5,0 5,5 0,0 Z"
         style="fill:#002255;fill-opacity:1;fill-rule:evenodd;stroke:#002255;stroke-width:1pt;stroke-opacity:1"
         transform="matrix(-0.2,0,0,-0.2,-1.2,0)" />
    </marker>
    <marker
       inkscape:isstock="true"
       style="overflow:visible"
       id="Arrow1Lend"
       refX="0"
       refY="0"
       orient="auto"
       inkscape:stockid="Arrow1Lend">
      <path
         inkscape:connector-curvature="0"
         transform="matrix(-0.8,0,0,-0.8,-10,0)"
         style="fill:#800000;fill-opacity:1;fill-rule:evenodd;stroke:#800000;stroke-width:1pt;stroke-opacity:1"
         d="M 0,0 5,-5 -12.5,0 5,5 0,0 Z"
         id="path4477" />
    </marker>
    <linearGradient
       inkscape:collect="always"
       id="linearGradient4248">
      <stop
         style="stop-color:#aa0000;stop-opacity:1"
         offset="0"
         id="stop4250" />
      <stop
         style="stop-color:#ffffff;stop-opacity:1"
         offset="1"
         id="stop4252" />
    </linearGradient>
    <radialGradient
       gradientUnits="userSpaceOnUse"
       gradientTransform="matrix(-0.72936687,-0.72255038,0.61019934,-0.61596226,339.55286,1014.654)"
       r="198.72517"
       fy="503.00217"
       fx="358.9064"
       cy="503.00217"
       cx="358.9064"
       id="radialGradient4184"
       xlink:href="#linearGradient4248"
       inkscape:collect="always" />
  </defs>
  <title
     id="title6">BLEU-fond-transparent-2</title>
  <g
     transform="matrix(1.1138949,0,0,1.1138949,-119.66368,-587.2276)"
     id="layer1"
     inkscape:label="Layer 1">
    <g
       transform="matrix(0.23655996,0,0,0.23302302,474.23332,493.37115)"
       id="g4256">
      <path
         sodipodi:nodetypes="ccccccccccccccccccc"
         inkscape:connector-curvature="0"
         id="path4254"
         d="m 354.97461,166.26562 v 83.74415 l -79.30859,137.36914 -79.3086,137.36523 -72.72461,41.98828 19.30469,33.43555 72.7207,-41.98633 h 139.31641 v 90.71678 h 38.60547 v -90.71678 h 139.3164 l 71.89649,41.50977 19.30273,-33.43555 -71.89648,-41.50977 -79.3086,-137.36718 -79.31054,-137.36914 v -83.74415 z"
         style="color:#000000;clip-rule:nonzero;display:inline;overflow:visible;visibility:visible;opacity:1;isolation:auto;mix-blend-mode:normal;color-interpolation:sRGB;color-interpolation-filters:linearRGB;solid-color:#000000;solid-opacity:1;fill:url(#radialGradient4184);fill-opacity:1;fill-rule:nonzero;stroke:none;stroke-width:3;stroke-linecap:round;stroke-linejoin:round;stroke-miterlimit:4;stroke-dasharray:none;stroke-dashoffset:0;stroke-opacity:1;marker:none;color-rendering:auto;image-rendering:auto;shape-rendering:auto;text-rendering:auto;enable-background:accumulate" />
      <path
         style="color:#000000;clip-rule:nonzero;display:inline;overflow:visible;visibility:visible;opacity:1;isolation:auto;mix-blend-mode:normal;color-interpolation:sRGB;color-interpolation-filters:linearRGB;solid-color:#000000;solid-opacity:1;fill:none;fill-opacity:1;fill-rule:nonzero;stroke:#333333;stroke-width:3;stroke-linecap:round;stroke-linejoin:round;stroke-miterlimit:4;stroke-dasharray:none;stroke-dashoffset:0;stroke-opacity:1;marker:none;color-rendering:auto;image-rendering:auto;shape-rendering:auto;text-rendering:auto;enable-background:accumulate"
         d="m 354.97461,166.26562 v 83.74415 l -79.30859,137.36914 -79.3086,137.36523 -72.72461,41.98828 m 19.30469,33.43555 72.7207,-41.98633 h 139.31641 v 90.71678 m 38.60547,0 v -90.71678 h 139.3164 l 71.89649,41.50977 M 624.0957,566.25586 552.19922,524.74609 472.89062,387.37891 393.58008,250.00977 v -83.74415"
         id="path4136"
         inkscape:connector-curvature="0"
         sodipodi:nodetypes="cccccccccccccccccc" />
      <path
         inkscape:transform-center-y="-31.486563"
         d="m 546.71537,606.77524 -197.22529,0 -197.22529,0 98.61265,-170.80211 98.61264,-170.80211 98.61264,170.80211 z"
         inkscape:randomized="0"
         inkscape:rounded="0"
         inkscape:flatsided="false"
         sodipodi:arg2="1.5707963"
         sodipodi:arg1="0.52359878"
         sodipodi:r2="113.86807"
         sodipodi:r1="227.73615"
         sodipodi:cy="492.90717"
         sodipodi:cx="349.49008"
         sodipodi:sides="3"
         id="path4138"
         style="color:#000000;clip-rule:nonzero;display:inline;overflow:visible;visibility:visible;opacity:1;isolation:auto;mix-blend-mode:normal;color-interpolation:sRGB;color-interpolation-filters:linearRGB;solid-color:#000000;solid-opacity:1;fill:#ffffff;fill-opacity:1;fill-rule:nonzero;stroke:#800000;stroke-width:5.42204905;stroke-linecap:round;stroke-linejoin:round;stroke-miterlimit:4;stroke-dasharray:none;stroke-dashoffset:0;stroke-opacity:1;marker:none;color-rendering:auto;image-rendering:auto;shape-rendering:auto;text-rendering:auto;enable-background:accumulate"
         sodipodi:type="star"
         transform="matrix(0.55355708,0,0,0.5530358,180.81502,171.49628)" />
    </g>
    <path
       d="m 148.90548,584.76157 q 0,-5.875 1.25,-11.375 1.375,-5.5 4.25,-9.75 2.875,-4.375 7.5,-6.875 4.625,-2.625 11.25,-2.625 6.625,0 11.25,2.625 4.625,2.5 7.5,6.875 2.875,4.25 4.125,9.75 1.375,5.5 1.375,11.375 0,5.625 -1.375,11 -1.25,5.25 -4.125,9.5 -2.875,4.25 -7.5,6.875 -4.625,2.5 -11.25,2.5 -6.625,0 -11.25,-2.5 -4.625,-2.625 -7.5,-6.875 -2.875,-4.25 -4.25,-9.5 -1.25,-5.375 -1.25,-11 z m -19.625,0 q 0,9.75 3,18.25 3,8.375 8.625,14.625 5.625,6.25 13.75,9.875 8.25,3.5 18.5,3.5 10.375,0 18.5,-3.5 8.125,-3.625 13.75,-9.875 5.625,-6.25 8.625,-14.625 3,-8.5 3,-18.25 0,-10 -3,-18.5 -3,-8.625 -8.625,-15 -5.625,-6.375 -13.75,-10 -8.125,-3.625 -18.5,-3.625 -10.25,0 -18.5,3.625 -8.125,3.625 -13.75,10 -5.625,6.375 -8.625,15 -3,8.5 -3,18.5 z"
       style="font-style:normal;font-variant:normal;font-weight:bold;font-stretch:normal;font-size:medium;line-height:125%;font-family:'Helvetica Neue';-inkscape-font-specification:'Helvetica Neue, Light';text-align:center;letter-spacing:0px;word-spacing:0px;writing-mode:lr-tb;text-anchor:middle;fill:#800000;fill-opacity:1;stroke:none;stroke-width:1px;stroke-linecap:butt;stroke-linejoin:miter;stroke-opacity:1"
       id="path4266"
       inkscape:connector-curvature="0" />
    <path
       d="m 254.58454,599.38657 h -19 q -0.125,8.25 3,14.25 3.125,6 8.375,9.875 5.375,3.875 12.25,5.625 7,1.875 14.375,1.875 9.125,0 16,-2.125 7,-2.125 11.625,-5.875 4.75,-3.875 7.125,-9.125 2.375,-5.25 2.375,-11.375 0,-7.5 -3.25,-12.25 -3.125,-4.875 -7.5,-7.75 -4.375,-2.875 -8.875,-4.125 -4.375,-1.375 -6.875,-1.875 -8.375,-2.125 -13.625,-3.5 -5.125,-1.375 -8.125,-2.75 -2.875,-1.375 -3.875,-3 -1,-1.625 -1,-4.25 0,-2.875 1.25,-4.75 1.25,-1.875 3.125,-3.125 2,-1.25 4.375,-1.75 2.375,-0.5 4.75,-0.5 3.625,0 6.625,0.625 3.125,0.625 5.5,2.125 2.375,1.5 3.75,4.125 1.5,2.625 1.75,6.625 h 19 q 0,-7.75 -3,-13.125 -2.875,-5.5 -7.875,-9 -5,-3.5 -11.5,-5 -6.375,-1.625 -13.375,-1.625 -6,0 -12,1.625 -6,1.625 -10.75,5 -4.75,3.375 -7.75,8.5 -2.875,5 -2.875,11.875 0,6.125 2.25,10.5 2.375,4.25 6.125,7.125 3.75,2.875 8.5,4.75 4.75,1.75 9.75,3 4.875,1.375 9.625,2.5 4.75,1.125 8.5,2.625 3.75,1.5 6,3.75 2.375,2.25 2.375,5.875 0,3.375 -1.75,5.625 -1.75,2.125 -4.375,3.375 -2.625,1.25 -5.625,1.75 -3,0.375 -5.625,0.375 -3.875,0 -7.5,-0.875 -3.625,-1 -6.375,-2.875 -2.625,-2 -4.25,-5.125 -1.625,-3.125 -1.625,-7.625 z"
       style="font-style:normal;font-variant:normal;font-weight:bold;font-stretch:normal;font-size:medium;line-height:125%;font-family:'Helvetica Neue';-inkscape-font-specification:'Helvetica Neue, Light';text-align:center;letter-spacing:0px;word-spacing:0px;writing-mode:lr-tb;text-anchor:middle;fill:#800000;fill-opacity:1;stroke:none;stroke-width:1px;stroke-linecap:butt;stroke-linejoin:miter;stroke-opacity:1"
       id="path4268"
       inkscape:connector-curvature="0" />
    <path
       d="m 348.26362,599.38657 h -19 q -0.125,8.25 3,14.25 3.125,6 8.375,9.875 5.375,3.875 12.25,5.625 7,1.875 14.375,1.875 9.125,0 16,-2.125 7,-2.125 11.625,-5.875 4.75,-3.875 7.125,-9.125 2.375,-5.25 2.375,-11.375 0,-7.5 -3.25,-12.25 -3.125,-4.875 -7.5,-7.75 -4.375,-2.875 -8.875,-4.125 -4.375,-1.375 -6.875,-1.875 -8.375,-2.125 -13.625,-3.5 -5.125,-1.375 -8.125,-2.75 -2.875,-1.375 -3.875,-3 -1,-1.625 -1,-4.25 0,-2.875 1.25,-4.75 1.25,-1.875 3.125,-3.125 2,-1.25 4.375,-1.75 2.375,-0.5 4.75,-0.5 3.625,0 6.625,0.625 3.125,0.625 5.5,2.125 2.375,1.5 3.75,4.125 1.5,2.625 1.75,6.625 h 19 q 0,-7.75 -3,-13.125 -2.875,-5.5 -7.875,-9 -5,-3.5 -11.5,-5 -6.375,-1.625 -13.375,-1.625 -6,0 -12,1.625 -6,1.625 -10.75,5 -4.75,3.375 -7.75,8.5 -2.875,5 -2.875,11.875 0,6.125 2.25,10.5 2.375,4.25 6.125,7.125 3.75,2.875 8.5,4.75 4.75,1.75 9.75,3 4.875,1.375 9.625,2.5 4.75,1.125 8.5,2.625 3.75,1.5 6,3.75 2.375,2.25 2.375,5.875 0,3.375 -1.75,5.625 -1.75,2.125 -4.375,3.375 -2.625,1.25 -5.625,1.75 -3,0.375 -5.625,0.375 -3.875,0 -7.5,-0.875 -3.625,-1 -6.375,-2.875 -2.625,-2 -4.25,-5.125 -1.625,-3.125 -1.625,-7.625 z"
       style="font-style:normal;font-variant:normal;font-weight:bold;font-stretch:normal;font-size:medium;line-height:125%;font-family:'Helvetica Neue';-inkscape-font-specification:'Helvetica Neue, Light';text-align:center;letter-spacing:0px;word-spacing:0px;writing-mode:lr-tb;text-anchor:middle;fill:#800000;fill-opacity:1;stroke:none;stroke-width:1px;stroke-linecap:butt;stroke-linejoin:miter;stroke-opacity:1"
       id="path4270"
       inkscape:connector-curvature="0" />
    <path
       d="m 486.31288,569.76157 h 19 q -0.875,-7.75 -4.25,-13.75 -3.375,-6 -8.625,-10 -5.125,-4.125 -11.75,-6.25 -6.5,-2.125 -13.875,-2.125 -10.25,0 -18.5,3.625 -8.125,3.625 -13.75,10 -5.625,6.375 -8.625,15 -3,8.5 -3,18.5 0,9.75 3,18.25 3,8.375 8.625,14.625 5.625,6.25 13.75,9.875 8.25,3.5 18.5,3.5 8.25,0 15.125,-2.5 6.875,-2.5 12,-7.25 5.125,-4.75 8.25,-11.5 3.125,-6.75 3.875,-15.125 h -19 q -1.125,9 -6.25,14.5 -5,5.5 -14,5.5 -6.625,0 -11.25,-2.5 -4.625,-2.625 -7.5,-6.875 -2.875,-4.25 -4.25,-9.5 -1.25,-5.375 -1.25,-11 0,-5.875 1.25,-11.375 1.375,-5.5 4.25,-9.75 2.875,-4.375 7.5,-6.875 4.625,-2.625 11.25,-2.625 3.625,0 6.875,1.25 3.375,1.125 6,3.25 2.625,2.125 4.375,5 1.75,2.75 2.25,6.125 z"
       style="font-style:normal;font-variant:normal;font-weight:bold;font-stretch:normal;font-size:medium;line-height:125%;font-family:'Helvetica Neue';-inkscape-font-specification:'Helvetica Neue, Light';text-align:center;letter-spacing:0px;word-spacing:0px;writing-mode:lr-tb;text-anchor:middle;fill:#800000;fill-opacity:1;stroke:none;stroke-width:1px;stroke-linecap:butt;stroke-linejoin:miter;stroke-opacity:1"
       id="path4272"
       inkscape:connector-curvature="0" />
    <path
       d="m 650.0364,580.13657 v -25.125 h 21.5 q 6.75,0 10.125,3 3.375,2.875 3.375,9.375 0,6.75 -3.375,9.75 -3.375,3 -10.125,3 z m -19.625,-40.375 v 89.25 h 19.625 v -34.875 h 19.625 q 7.375,0 10.625,3.25 3.25,3.25 4.25,10.25 0.75,5.375 1.125,11.25 0.375,5.875 2,10.125 h 19.625 q -1.375,-1.875 -2.125,-4.5 -0.625,-2.75 -1,-5.75 -0.25,-3 -0.375,-5.875 -0.125,-2.875 -0.25,-5 -0.25,-3.375 -1,-6.75 -0.625,-3.375 -2.125,-6.125 -1.5,-2.875 -3.875,-4.875 -2.375,-2.125 -6,-3.125 v -0.25 q 7.5,-3 10.75,-8.75 3.375,-5.75 3.375,-13.625 0,-5.125 -1.875,-9.5 -1.75,-4.5 -5.25,-7.875 -3.375,-3.375 -8.25,-5.25 -4.75,-2 -10.75,-2 z"
       style="font-style:normal;font-variant:normal;font-weight:bold;font-stretch:normal;font-size:medium;line-height:125%;font-family:'Helvetica Neue';-inkscape-font-specification:'Helvetica Neue, Light';text-align:center;letter-spacing:0px;word-spacing:0px;writing-mode:lr-tb;text-anchor:middle;fill:#800000;fill-opacity:1;stroke:none;stroke-width:1px;stroke-linecap:butt;stroke-linejoin:miter;stroke-opacity:1"
       id="path4276"
       inkscape:connector-curvature="0" />
  </g>
</svg>
